<mxfile host="app.diagrams.net" modified="2020-04-17T06:11:13.273Z" agent="5.0 (iPad; CPU OS 13_3 like Mac OS X) AppleWebKit/605.1.15 (KHTML, like Gecko) CriOS/80.0.3987.95 Mobile/15E148 Safari/604.1" etag="Z5qozqViQJRa5H1RIUqY" version="12.9.14" type="github">
  <diagram id="EoHs7nKflqcb4rGpBPPL" name="Page-1">
    <mxGraphModel dx="526" dy="484" grid="1" gridSize="10" guides="1" tooltips="1" connect="1" arrows="1" fold="1" page="1" pageScale="1" pageWidth="850" pageHeight="1100" math="0" shadow="0">
      <root>
        <mxCell id="0" />
        <mxCell id="1" parent="0" />
        <mxCell id="aBsGDlJEBbYVCaHe6lMG-1" value="" style="endArrow=classic;html=1;fillColor=#60a917;strokeColor=#2D7600;strokeWidth=4;" parent="1" edge="1">
          <mxGeometry width="50" height="50" relative="1" as="geometry">
            <mxPoint x="50" y="280" as="sourcePoint" />
            <mxPoint x="280" y="280" as="targetPoint" />
          </mxGeometry>
        </mxCell>
        <mxCell id="aBsGDlJEBbYVCaHe6lMG-2" value="" style="endArrow=classic;html=1;fillColor=#e51400;strokeColor=#B20000;strokeWidth=4;" parent="1" edge="1">
          <mxGeometry width="50" height="50" relative="1" as="geometry">
            <mxPoint x="280" y="280" as="sourcePoint" />
            <mxPoint x="600" y="280" as="targetPoint" />
          </mxGeometry>
        </mxCell>
        <mxCell id="aBsGDlJEBbYVCaHe6lMG-3" value="" style="endArrow=none;html=1;strokeWidth=3;" parent="1" edge="1">
          <mxGeometry width="50" height="50" relative="1" as="geometry">
            <mxPoint x="280" y="320" as="sourcePoint" />
            <mxPoint x="280" y="240" as="targetPoint" />
          </mxGeometry>
        </mxCell>
        <mxCell id="aBsGDlJEBbYVCaHe6lMG-4" value="" style="endArrow=none;html=1;strokeWidth=3;" parent="1" edge="1">
          <mxGeometry width="50" height="50" relative="1" as="geometry">
            <mxPoint x="600" y="320" as="sourcePoint" />
            <mxPoint x="600" y="240" as="targetPoint" />
          </mxGeometry>
        </mxCell>
        <mxCell id="aBsGDlJEBbYVCaHe6lMG-6" value="Registration&amp;nbsp;&lt;br&gt;Seminar" style="rhombus;html=1;align=center;whiteSpace=wrap;comic=1;strokeWidth=3;fontFamily=Comic Sans MS;fontStyle=1;fillColor=#60a917;strokeColor=#000000;fontColor=#ffffff;gradientColor=none;gradientDirection=west;" parent="1" vertex="1">
          <mxGeometry x="230" y="140" width="100" height="100" as="geometry" />
        </mxCell>
        <mxCell id="aBsGDlJEBbYVCaHe6lMG-7" value="Annual&amp;nbsp;&lt;br&gt;Progress&lt;br&gt;Report" style="rhombus;html=1;align=center;whiteSpace=wrap;comic=1;strokeWidth=3;fontFamily=Comic Sans MS;fontStyle=1;fillColor=#e51400;strokeColor=#000000;fontColor=#ffffff;gradientColor=none;gradientDirection=west;" parent="1" vertex="1">
          <mxGeometry x="550" y="140" width="100" height="100" as="geometry" />
        </mxCell>
        <mxCell id="aBsGDlJEBbYVCaHe6lMG-11" value="&lt;div style=&quot;text-align: justify&quot;&gt;&lt;b style=&quot;background-color: rgb(255 , 255 , 255)&quot;&gt;Work to be Done:&lt;/b&gt;&lt;/div&gt;&lt;font style=&quot;font-size: 12px ; background-color: rgb(76 , 0 , 153)&quot;&gt;&lt;div style=&quot;text-align: justify&quot;&gt;* Extension and Improvment of &amp;nbsp; &amp;nbsp;&lt;/div&gt;&lt;div style=&quot;text-align: justify&quot;&gt;&amp;nbsp; &amp;nbsp;current work.&lt;/div&gt;&lt;div style=&quot;text-align: justify&quot;&gt;* Literature survey on transformation&lt;/div&gt;&lt;div style=&quot;text-align: justify&quot;&gt;&amp;nbsp; &amp;nbsp;properties of CNN.&lt;/div&gt;&lt;div style=&quot;text-align: justify&quot;&gt;* Improvements in person Re-ID. &amp;nbsp;&lt;/div&gt;&lt;div style=&quot;text-align: justify&quot;&gt;* Improvements in detection &amp;nbsp; &amp;nbsp; &amp;nbsp; &amp;nbsp;&lt;/div&gt;&lt;div style=&quot;text-align: justify&quot;&gt;&amp;nbsp; &amp;nbsp;under various transformations&lt;/div&gt;&lt;div style=&quot;text-align: justify&quot;&gt;* Drafting the these works. &amp;nbsp; &amp;nbsp; &amp;nbsp; &amp;nbsp; &amp;nbsp;&amp;nbsp;&lt;/div&gt;&lt;div&gt;&lt;div&gt;&lt;div style=&quot;text-align: justify&quot;&gt;* Communicating the papers. &amp;nbsp; &amp;nbsp; &amp;nbsp; &amp;nbsp; &amp;nbsp; &amp;nbsp;&amp;nbsp;&lt;/div&gt;&lt;/div&gt;&lt;/div&gt;&lt;/font&gt;" style="text;html=1;align=right;verticalAlign=middle;resizable=0;points=[];autosize=1;fillColor=#fff2cc;strokeColor=#d6b656;gradientColor=#ffd966;strokeWidth=1;glass=0;dashed=1;dashPattern=1 1;" parent="1" vertex="1">
          <mxGeometry x="334" y="117" width="210" height="150" as="geometry" />
        </mxCell>
        <mxCell id="69DbzFKOykOLwIixtFVX-1" value="&lt;b style=&quot;background-color: rgb(255 , 229 , 153)&quot;&gt;April 2020&lt;/b&gt;" style="text;html=1;align=center;verticalAlign=middle;resizable=0;points=[];autosize=1;" vertex="1" parent="1">
          <mxGeometry x="248" y="322" width="70" height="20" as="geometry" />
        </mxCell>
        <mxCell id="69DbzFKOykOLwIixtFVX-2" value="&lt;b style=&quot;background-color: rgb(255 , 229 , 153)&quot;&gt;Dec. 2020&lt;/b&gt;" style="text;html=1;align=center;verticalAlign=middle;resizable=0;points=[];autosize=1;" vertex="1" parent="1">
          <mxGeometry x="565" y="322" width="70" height="20" as="geometry" />
        </mxCell>
        <mxCell id="69DbzFKOykOLwIixtFVX-3" value="&lt;div style=&quot;text-align: justify&quot;&gt;&lt;b style=&quot;background-color: rgb(255 , 255 , 255)&quot;&gt;Work Completed:&lt;/b&gt;&lt;/div&gt;&lt;font style=&quot;font-size: 12px ; background-color: rgb(76 , 0 , 153)&quot;&gt;&lt;div style=&quot;text-align: justify&quot;&gt;* Course work.&lt;/div&gt;&lt;div style=&quot;text-align: justify&quot;&gt;* Literature survey.&lt;/div&gt;&lt;div style=&quot;text-align: justify&quot;&gt;* Problem defined.&lt;/div&gt;&lt;div style=&quot;text-align: justify&quot;&gt;* Solution proposed. &amp;nbsp;&lt;/div&gt;&lt;div style=&quot;text-align: justify&quot;&gt;* Framework developed.&lt;/div&gt;&lt;div style=&quot;text-align: justify&quot;&gt;* Results obtained. &amp;nbsp; &amp;nbsp; &amp;nbsp; &amp;nbsp; &amp;nbsp;&amp;nbsp;&lt;/div&gt;&lt;div&gt;&lt;div&gt;&lt;div style=&quot;text-align: justify&quot;&gt;* Paper communicated. &amp;nbsp; &amp;nbsp; &amp;nbsp; &amp;nbsp;&lt;/div&gt;&lt;/div&gt;&lt;/div&gt;&lt;/font&gt;" style="text;html=1;align=right;verticalAlign=middle;resizable=0;points=[];autosize=1;fillColor=#fff2cc;strokeColor=#d6b656;gradientColor=#ffd966;strokeWidth=1;glass=0;dashed=1;dashPattern=1 1;" vertex="1" parent="1">
          <mxGeometry x="53" y="130" width="170" height="120" as="geometry" />
        </mxCell>
      </root>
    </mxGraphModel>
  </diagram>
</mxfile>
